<svg version="1.1" id="Layer_1" xmlns="http://www.w3.org/2000/svg" xmlns:xlink="http://www.w3.org/1999/xlink" x="0px" y="0px"
	 width="100%" viewBox="0 0 512 512" enable-background="new 0 0 512 512" xml:space="preserve">
<path fill="#1261FD" opacity="1.000000" stroke="none" 
	d="
M340.000000,513.000000 
	C226.694199,513.000000 113.888390,513.000000 1.041291,513.000000 
	C1.041291,342.402496 1.041291,171.804993 1.041291,1.103745 
	C171.555817,1.103745 342.111694,1.103745 512.833801,1.103745 
	C512.833801,171.666534 512.833801,342.333252 512.833801,513.000000 
	C455.471649,513.000000 397.985809,513.000000 340.000000,513.000000 
M125.691513,376.331177 
	C125.691757,337.834869 125.606392,299.338196 125.761238,260.842499 
	C125.793976,252.701462 126.042305,244.458588 127.316101,236.441345 
	C138.417816,166.567169 202.106354,118.633324 272.627014,126.822823 
	C338.325806,134.452347 388.463104,190.588211 388.495605,256.687897 
	C388.498535,262.687134 387.794312,268.686737 387.347443,275.820099 
	C384.965668,273.541077 383.638947,272.319885 382.365265,271.045654 
	C358.684937,247.354660 335.392487,223.259735 311.229279,200.072128 
	C286.590729,176.428299 251.937439,171.852966 221.371078,186.930176 
	C192.570099,201.136581 175.729736,232.167038 178.804855,265.363739 
	C182.282867,302.910034 214.079285,333.849915 251.304047,335.909973 
	C291.409149,338.129456 326.372040,311.957581 334.084808,273.908691 
	C334.826263,270.250977 335.361786,266.551514 336.074677,262.394531 
	C337.109711,263.208679 337.661316,263.557739 338.110931,264.008606 
	C351.055542,276.988739 363.917633,290.052643 376.992035,302.900513 
	C379.371063,305.238342 378.754883,307.007172 377.692657,309.462311 
	C344.903290,385.248840 250.790176,412.386688 182.768295,365.642731 
	C181.477432,364.755615 180.090897,364.007782 178.116150,362.811615 
	C178.116150,381.952576 178.207886,400.246765 178.036011,418.538452 
	C178.003036,422.046509 179.056931,423.772919 182.352234,425.207825 
	C216.591660,440.116943 252.076599,444.638977 288.852264,438.123352 
	C389.236877,420.337952 455.924255,325.054749 438.146088,224.958298 
	C420.576599,126.036392 327.202179,59.403133 228.268326,75.186661 
	C147.846558,88.016830 85.741280,151.221161 74.861053,232.654480 
	C67.346672,288.896118 83.507637,338.324799 121.030502,380.832825 
	C122.191780,382.148376 122.846451,383.911163 123.737305,385.465424 
	C124.388733,385.000854 125.040154,384.536285 125.691574,384.071716 
	C125.691574,381.801605 125.691574,379.531494 125.691513,376.331177 
z"/>
<path fill="#FDFEFF" opacity="1.000000" stroke="none" 
	d="
M125.691544,376.796265 
	C125.691574,379.531494 125.691574,381.801605 125.691574,384.071716 
	C125.040154,384.536285 124.388733,385.000854 123.737305,385.465424 
	C122.846451,383.911163 122.191780,382.148376 121.030502,380.832825 
	C83.507637,338.324799 67.346672,288.896118 74.861053,232.654480 
	C85.741280,151.221161 147.846558,88.016830 228.268326,75.186661 
	C327.202179,59.403133 420.576599,126.036392 438.146088,224.958298 
	C455.924255,325.054749 389.236877,420.337952 288.852264,438.123352 
	C252.076599,444.638977 216.591660,440.116943 182.352234,425.207825 
	C179.056931,423.772919 178.003036,422.046509 178.036011,418.538452 
	C178.207886,400.246765 178.116150,381.952576 178.116150,362.811615 
	C180.090897,364.007782 181.477432,364.755615 182.768295,365.642731 
	C250.790176,412.386688 344.903290,385.248840 377.692657,309.462311 
	C378.754883,307.007172 379.371063,305.238342 376.992035,302.900513 
	C363.917633,290.052643 351.055542,276.988739 338.110931,264.008606 
	C337.661316,263.557739 337.109711,263.208679 336.074677,262.394531 
	C335.361786,266.551514 334.826263,270.250977 334.084808,273.908691 
	C326.372040,311.957581 291.409149,338.129456 251.304047,335.909973 
	C214.079285,333.849915 182.282867,302.910034 178.804855,265.363739 
	C175.729736,232.167038 192.570099,201.136581 221.371078,186.930176 
	C251.937439,171.852966 286.590729,176.428299 311.229279,200.072128 
	C335.392487,223.259735 358.684937,247.354660 382.365265,271.045654 
	C383.638947,272.319885 384.965668,273.541077 387.347443,275.820099 
	C387.794312,268.686737 388.498535,262.687134 388.495605,256.687897 
	C388.463104,190.588211 338.325806,134.452347 272.627014,126.822823 
	C202.106354,118.633324 138.417816,166.567169 127.316101,236.441345 
	C126.042305,244.458588 125.793976,252.701462 125.761238,260.842499 
	C125.606392,299.338196 125.691757,337.834869 125.691544,376.796265 
z"/>
</svg>